<?xml version="1.0" encoding="UTF-8"?>
<svg viewBox="0 0 640 480" xmlns="http://www.w3.org/2000/svg">
 <g fill="#007f00" fill-opacity=".608" fill-rule="evenodd" stroke-width="2">
  <path d="m419.57 15.791s4.707 5.6893 4.707 5.6893l0.75 6-5.75 3.5-0.75 3.75-8.5-3.75 4.25 6.5 0.75 5-4.75 3.75-7.25-5.75h9l-1-4.25-10.5-4.25-11.5-1.5-4.5-2.5-10.5-1.75-10.75 5.25-3.75 1 0.25 5-5.25 8.75-9.75 10.75-5.5 0.25 0.5 7 4.25 9.75 5.25 0.75 5.5-4.25 5.75 0.75 4.25 7.25 3 6.75 3.5 2.25 8-6.5-1.5-7.25 4.75-6.75-7-5-2.25-7.75 6.25-4.25-0.5-6.5 7 0.5 0.75 2.25-3.5 6.25v4l3.5 6.75 4 1 0.25 1.5h3.75l9.75-4 5 2.5-1.5 1.75h-8.75l-2.25 3 3.5 6.25-6.75-0.75 0.75 13.75-18.75 5.5-4.5-1.75-5 1.25-4.5-3-2.5-14.25-8.25 7.25 4.75 10.75-14.5 2.75-1 5.75-11 6.5-7.25 8.25-5.75 0.25-3.5 3-11.5-0.5 0.25 5 9 3.5-0.25 2.75 4.25 4.75-2.75 16.25-28.5-4-7.75 2.25 0.75 13.25-5.25 12.25 1.5 13.25 5.5-0.5 7 8 2.25 0.5 1.75-1.5 20.5-5.75 8.25-6.25 1.25-10.5 3.25-4.5 12-4.5-0.5-8.75 5.25-3.25 9.75 3 11.75-7.5 6.25 2.25 13 14 5.25 2 11 7.25 4.25 7.5-6 4-11.75 0.75-1 3.25 15.75 5.75-0.5-8h3.5l4.75-9-3.5-4 1.5-3.5 3.5 2.5 3 0.25-1.25-3.5-10.25-5.5-1-2.5-7-1.25-5.75-6.75-5-4.25-3-7 3.75-1.5 1 2.5 4.75 0.25 4 4.5 22 13 0.25 7.25 3.75 6.5 6 4 5.75 11.5 8.25 1-0.25-6.75 3.5-4.5-5.25-3-4-8 2.5 1.75 2-0.25-0.5-5.5 9.75 1 7.5 16.25 10.125 6.125 5.25 1.125 0.625-4.5 5 0.625 14.875-3.5 2.625 7.625 0.875 22.25-1.5 3.75-11.875 1-7.25 5.75-25.875-3.125-4.5-3.125-6.125-0.875-8 5.375 0.625 9.125-5.125 2-6.5-1.5-6.5-0.625-9.5-8.5-15.375-1.875-9.125-4.25-1-3.25 4.625-6.875-3.75-5.625 2.375-4.5-5-2.75-4.625-0.5-2.25 1.875h-13.25l-4.875 2.125-8.5-2.25-32.625 11.375-4-2.25-11-0.875-1.25-3-4.125-0.25-1 4.375-24 23.25-0.5 7.75-11.25 11-9.5 2.25-20.75 27.5-7 13.25 3.25 5-3.25 25.75-6 7.25 3.5 8.25-1 7.25 18.25 20 4.5 12.5 31 23 10-2.75 25.5 4 22.75-7 20-0.5 6 11 17.5-2 9 7.25-4.75 9.5-3.75 10.5 3.75 7 13.25 9.25 5 12.75-2.25 2.75 3.5 6.75-15.25 15.75 0.75 6.25 6.25 8.25 0.25 6.25 5.75 3.25c31.294-6.321 60.822-20.576 87-40.562l-0.75-0.438v-3.5l30-23.75 12.25-35.25 33-52.75 12.5-32.75-0.25-16.25-14 17.25-5-0.25-1.25-7.5-6-6.5h-5.75l-2.5-9-7.25-9.25-1.75-12.5-7.25-8.75-13.5-24.75 5.25-2.75 13.75 18.25 6 5.5 3.25 12.25 14.25 17.25 2.75 19.75h2.75l18.5-30.5 7.75-22.5 1-28.75-6-4-3.25-8-2 0.75v11.75l-4.5 4.75-2-9-8.5-6-5-10.5 4-2.5 8.25 9.75 6.25 0.25 2-4 6 4.5 7.25-10.25 4.898 11.053c-12.503-76.338-53.105-148.9-156.6-199.49zm79.457 106.94l5.25 1 9.5 9 8.75 11.5 11 16.5-4 3.25-7.75-2.25-2.75-14-13.5-10.75-6.5-14.25zm-50.25 7.25l7.25 0.75 7.75 9 6.25-6.25 14.5 6 6.75 5.25 1 7-13.25 1.5-12.25-2.25-8 8.25-8.75-0.75-5.25-5.25 4-23.25z"/>
  <path d="m300.2 113.29l22.097-3.7123 5.833-4.9497-5.303-7.2479-1.06-4.4194-6.718-10.076 0.177-8.8389-6.718-3.0052-6.01 5.3033 2.475 5.3033-0.177 6.8943 7.425 0.3535-1.591 7.7782-8.839 6.1872 0.707 2.8285 3.712 1.4141-7.248 4.773 1.238 1.4142z"/>
  <path d="m300.73 88.719l-3.889 12.905-15.026 1.9446 1.061-4.2427 5.303-1.4141v-1.7678l-4.243-1.591 3.005-5.4801h3.89l2.4741-3.0052 7.248 0.5303 0.177 2.1214z"/>
  <path d="m278.28 48.06l12.728-2.8284 1.2379-4.4194-3.0049-2.4749-12.728 0.1768-2.122-1.2375-5.833 4.5962 4.773 6.1872h4.949z"/>
  <path d="m365.08 156.78l-4.42 1.591 0.708 5.126 1.767 2.475-3.005 2.652 1.061 12.021 6.01-1.945 0.177-9.546-3.359-3.535 1.768-1.591-0.707-7.248z"/>
  <path d="m212.17 52.303l26.163-15.91 14.849-1.0607 8.839-4.2426 21.92-3.8891 9.9-7.7782 16.97-12.021 10.253-2.8284-7.071-4.2427-17.677-1.0607h-16.971l-15.91 7.4247-38.891 22.981-14.142 13.788 1.768 8.8389z"/>
  <path d="m109.64 107.46l13.082-12.021 1.768 5.3033 13.788-9.1924-3.182-2.4749 10.607-10.253 8.132 0.3536-12.728 10.253 5.303 10.253 9.192-13.789v-4.2426l14.143-14.849 4.949-12.728 16.617-13.789 20.86-11.314 39.244-23.334s-79.903 14.672-141.78 101.82z"/>
  <path d="m134.03 433.43l-8.132-19.799 6.01-7.072-7.424-15.202-15.203-19.799-13.082-12.021-15.203-28.992-8.1318-33.234-6.7175-22.981-2.1213-20.152c-4.5962 100.23 70.004 179.25 70.004 179.25z"/>
 </g>
</svg>
